PathFileType	4	(X/Y/Z)	F:\MotionCapture\20160217\3\Generated_files\EMG_test04-Dynamic.trc
DataRate	CameraRate	NumFrames	NumMarkers	Units	OrigDataRate	OrigDataStartFrame	OrigNumFrames
120.00	120.00	       4	39	mm	120.00	179	       713
Frame#	Time	Top.Head			Front.Head			Rear.Head			R.Shoulder			R.Offset			R.Elbow			R.Wrist			L.Shoulder			L.Elbow			L.Wrist			R.ASIS			L.ASIS			V.Sacral			R.Thigh			R.Knee			R.Shank			R.Ankle			R.Heel			R.Toe			L.Thigh			L.Knee			L.Shank			L.Ankle			L.Heel			L.Toe			R1			R2			R3			R4			R5			R6			R7			L1			L2			L3			L4			L5			L6			L7			V_Mid_ASIS			V_Pelvis_Origin			V_R.Hip_JC			V_L.Hip_JC			V_R.Knee_JC			V_L.Knee_JC			V_R.Ankle_JC			V_L.Ankle_JC			V_Mid_Hip			V_Mid_Shoulder			V_R.Hand			V_L.Hand			V_R.Toe_Offset_Static			V_L.Toe_Offset_Static			V_R.Toe_Offset			V_L.Toe_Offset			
		X1	Y1	Z1	X2	Y2	Z2	X3	Y3	Z3	X4	Y4	Z4	X5	Y5	Z5	X6	Y6	Z6	X7	Y7	Z7	X8	Y8	Z8	X9	Y9	Z9	X10	Y10	Z10	X11	Y11	Z11	X12	Y12	Z12	X13	Y13	Z13	X14	Y14	Z14	X15	Y15	Z15	X16	Y16	Z16	X17	Y17	Z17	X18	Y18	Z18	X19	Y19	Z19	X20	Y20	Z20	X21	Y21	Z21	X22	Y22	Z22	X23	Y23	Z23	X24	Y24	Z24	X25	Y25	Z25	X26	Y26	Z26	X27	Y27	Z27	X28	Y28	Z28	X29	Y29	Z29	X30	Y30	Z30	X31	Y31	Z31	X32	Y32	Z32	X33	Y33	Z33	X34	Y34	Z34	X35	Y35	Z35	X36	Y36	Z36	X37	Y37	Z37	X38	Y38	Z38	X39	Y39	Z39	

179	1.483	2408.77295	145.24268	1720.83545	2298.48486	142.45215	1634.62048	2518.97363	140.16811	1655.10815	2474.41309	339.71954	1423.72791	2618.59155	74.46783	1287.25488	2500.18140	465.76651	1109.73926	2287.09326	448.15799	962.92004	2454.31348	-66.16818	1419.34729	2590.33643	-175.14267	1134.92493	2613.23633	-200.16757	877.17023	2458.46655	290.69073	930.27533	2433.33423	5.18514	943.23419	2668.51636	123.55938	952.91663	2423.35254	289.60861	556.00098	2512.94482	328.23557	454.96741	2677.15869	237.20714	290.54053	2854.57495	279.07108	242.19997	2892.42798	200.06789	277.23148	2823.85107	284.56723	93.59439	2354.80762	53.67509	644.07831	2415.87231	-0.03223	472.28238	2405.11987	80.27785	333.61160	2476.30908	21.74452	67.53526	2542.36108	76.80733	49.54418	2337.05444	28.02850	47.82854	2797.53979	279.24200	57.67238	2806.27515	250.58134	90.33460	2821.72900	201.74358	177.45421	2864.14160	181.61130	234.38892	2889.26440	249.36398	254.50954	2873.79980	291.21045	186.49046	2855.31348	311.34915	122.59216	2292.89087	56.83505	43.69109	2326.05200	67.97424	50.30328	2420.70435	110.44395	53.55077	2504.63013	109.47839	49.65313	2516.12207	36.70555	50.39420	2441.72803	10.44307	40.32635	2377.93140	-3.67481	44.62496	
180	1.492	2399.38330	145.25414	1723.04114	2288.85010	141.68192	1636.53333	2509.22412	139.87582	1656.96313	2466.05811	339.00809	1425.72119	2609.02417	72.40276	1288.76929	2494.01587	464.74603	1111.06616	2282.53955	448.05222	960.84515	2443.50244	-66.48046	1420.79663	2573.40820	-177.46091	1132.95447	2589.38892	-201.25758	875.13593	2448.12427	288.83658	932.54376	2423.86621	3.06444	944.36218	2658.91064	123.42670	954.71362	2404.19922	289.65182	560.45221	2492.61450	327.59415	458.11844	2653.96899	236.82437	292.81760	2830.49658	278.55023	241.83627	2869.94775	199.63678	275.29599	2792.30957	282.90329	94.90244	2353.08545	53.24758	642.70813	2413.86475	-0.62228	472.12753	2402.68018	79.94283	333.78305	2476.31274	21.77702	67.54126	2542.52100	76.71932	49.55187	2337.15942	28.25015	47.79207	2765.02344	278.01794	59.11047	2775.11084	250.04553	90.99969	2795.98633	200.09669	177.17482	2839.73340	180.42650	231.90201				2846.75171	288.05121	184.31699	2825.63208	309.41064	122.17201	2292.84033	56.76857	43.34632	2326.14819	67.99548	50.26368	2420.74048	110.65780	53.60516	2504.82642	109.33654	49.65131	2516.17554	36.87347	50.38953	2441.77246	10.42530	40.24065	2378.04297	-3.66891	44.59082																																																	2857.16870	266.37219	236.16711	2848.73096	-124.41232	312.43698	
181	1.500	2389.73047	144.93362	1724.32715	2279.61841	142.06041	1637.85669	2499.69849	139.07661	1658.91125	2458.39746	338.53506	1426.56616	2599.05420	70.87003	1290.41162	2488.11646	464.04935	1111.79443	2279.23633	448.44562	958.10773	2433.66919	-68.04304	1421.95630	2556.59131	-179.14748	1131.08826	2565.37695	-202.48360	872.76691	2437.12744	287.45215	934.59521	2414.45093	2.03301	945.45782	2649.01074	123.24732	956.32245	2385.21509	289.63690	565.64209	2471.27686	327.23709	460.78305	2629.33325	235.63252	293.49829	2805.41211	277.87985	239.45415	2846.40308	198.54747	271.43210	2760.78711	281.08780	94.68214	2348.52100	53.34502	641.39557	2412.10571	-0.89142	471.85730	2401.60986	80.30425	333.36182	2476.27490	21.89767	67.32001	2542.62427	76.61497	49.66606	2337.27930	28.46832	47.68554	2731.48267	276.53644	59.72915	2742.94360	248.70810	91.51158	2769.24854	198.70187	175.24327	2814.95068	178.09862	229.15891	2842.99219	245.97946	248.44395	2819.40723	287.87695	182.01779	2795.93726	309.17947	121.19594	2293.03442	56.84642	43.62397	2326.11646	68.07886	50.00292	2420.96460	110.65968	53.56525	2504.93945	109.33235	49.64817	2516.19897	36.85804	50.42980	2441.86450	10.40767	40.35290	2378.16602	-3.12211	43.88612																																																	2260.58472	206.98087	833.25165	2832.32324	265.78970	232.28940	2675.82593	234.41931	-8.12501	2400.05078	45.57003	29.69237	
182	1.508	2379.95020	144.51204	1725.93762	2269.88770	142.40047	1639.34949	2490.06885	138.74768	1660.56201	2450.59985	338.14584	1428.06360	2589.49609	69.25333	1291.69983	2482.26147	462.60226	1113.26624	2275.44067	448.50955	955.28961	2423.63770	-68.41146	1422.99768	2539.11230	-180.88295	1129.31433	2539.82739	-202.65189	871.20032	2427.00977	286.30051	936.85272	2405.88721	0.00322	946.59973	2639.27905	122.97706	957.86737	2366.94312	289.25714	570.43628	2449.08496	327.77945	463.79099	2605.12769	235.44142	293.96762	2779.14453	275.73547	235.59438	2821.48975	196.24025	265.53259	2729.03345	279.59909	93.28059	2343.08130	53.18638	639.35052	2409.77783	-0.49286	471.41458	2401.35547	80.59499	332.75278	2476.25000	21.89819	67.28538	2542.64868	76.65810	49.77692	2337.31885	28.58149	47.58704	2698.01416	275.07907	60.22387	2710.89551	246.58359	90.81460	2739.37939	197.23808	174.87515	2788.87134	177.44826	224.49240	2816.42554	244.15645	243.49533	2792.62646	286.16324	176.86981	2764.27563	307.05289	118.22829	2293.19727	57.13974	43.49688	2326.21094	68.21429	50.19035	2420.84814	110.71214	53.40574	2505.03809	109.33735	49.69607	2516.16162	36.90375	50.40351	2441.76758	9.87922	40.77073	2378.18384	-3.01534	43.91563																																																	2790.30200	-117.76365	311.70621	3114.27539	102.37334	830.30792	
